<?xml version="1.0" encoding="UTF-8" standalone="no"?>
<!-- Created with Inkscape (http://www.inkscape.org/) -->

<svg
   width="100"
   height="100"
   viewBox="0 0 26.458333 26.458333"
   version="1.1"
   id="svg1"
   inkscape:version="1.3.2 (091e20e, 2023-11-25)"
   sodipodi:docname="flashq.svg"
   inkscape:export-filename="flashq.png"
   inkscape:export-xdpi="96"
   inkscape:export-ydpi="96"
   xmlns:inkscape="http://www.inkscape.org/namespaces/inkscape"
   xmlns:sodipodi="http://sodipodi.sourceforge.net/DTD/sodipodi-0.dtd"
   xmlns:xlink="http://www.w3.org/1999/xlink"
   xmlns="http://www.w3.org/2000/svg"
   xmlns:svg="http://www.w3.org/2000/svg">
  <sodipodi:namedview
     id="namedview1"
     pagecolor="#ffffff"
     bordercolor="#000000"
     borderopacity="0.25"
     inkscape:showpageshadow="2"
     inkscape:pageopacity="0.0"
     inkscape:pagecheckerboard="0"
     inkscape:deskcolor="#d1d1d1"
     inkscape:document-units="mm"
     inkscape:lockguides="true"
     showguides="true"
     inkscape:zoom="6.2254178"
     inkscape:cx="50.117118"
     inkscape:cy="49.87617"
     inkscape:window-width="1440"
     inkscape:window-height="872"
     inkscape:window-x="0"
     inkscape:window-y="0"
     inkscape:window-maximized="0"
     inkscape:current-layer="layer1" />
  <defs
     id="defs1">
    <clipPath
       clipPathUnits="userSpaceOnUse"
       id="clipPath6">
      <use
         x="0"
         y="0"
         xlink:href="#g5"
         id="use6" />
    </clipPath>
  </defs>
  <g
     inkscape:label="图层 1"
     inkscape:groupmode="layer"
     id="layer1">
    <path
       id="path1"
       style="fill:#266fb9;fill-opacity:1;stroke-width:0.392;stroke-dasharray:none"
       d="M 14.376584,4.6335911 A 7.3094125,8.9297256 28.1 0 0 6.7811825,9.7862482 7.3094125,8.9297256 28.1 0 0 9.0234227,21.106487 7.3094125,8.9297256 28.1 0 0 19.677036,16.672133 7.3094125,8.9297256 28.1 0 0 17.435312,5.3518935 7.3094125,8.9297256 28.1 0 0 14.376584,4.6335911 Z m -0.334863,2.3476603 a 5.2823468,6.5123593 26.296173 0 1 2.203484,0.5255496 5.2823468,6.5123593 26.296173 0 1 1.614888,8.282698 5.2823468,6.5123593 26.296173 0 1 -7.674467,3.244763 5.2823468,6.5123593 26.296173 0 1 -1.6148888,-8.282698 5.2823468,6.5123593 26.296173 0 1 5.4709838,-3.7703126 z" />
    <path
       style="fill:#fcd200;fill-opacity:1;stroke-width:1.00255;stroke-dasharray:none"
       d="M 15.704304,1.9307499 8.1273517,14.473691 13.178653,14.424901 10.551976,24.527583 18.330982,11.984642 13.128141,11.935852 Z"
       id="path4"
       inkscape:label="path4" />
    <rect
       style="fill:#266fb9;fill-opacity:1;stroke-width:0.485074;stroke-dasharray:none"
       id="rect3"
       width="2.4318309"
       height="7.4840231"
       x="2.2604012"
       y="18.937469"
       transform="matrix(1,0,0.58696069,0.80961545,0,0)" />
    <g
       id="g6"
       clip-path="url(#clipPath6)"
       transform="translate(-3.6891785,-11.423106)">
      <g
         inkscape:label="Clip"
         id="g5">
        <path
           id="path1-6"
           style="fill:#266fb9;fill-opacity:1;stroke-width:0.392;stroke-dasharray:none"
           d="m 18.060385,16.05612 a 7.3094125,8.9297256 28.1 0 0 -0.0072,5.17e-4 c 0.0058,-10e-7 0.01172,-1.6e-5 0.01757,0 a 7.3094125,8.9297256 28.1 0 0 -0.01034,-5.17e-4 z m -1.482597,0.213941 a 7.3094125,8.9297256 28.1 0 0 -0.225826,0.06305 c 0.0014,0.0045 0.0027,0.009 0.0041,0.01344 2.65e-4,7.17e-4 8.01e-4,0.0014 10e-4,0.0021 0.05564,-0.03438 0.131023,-0.05766 0.227377,-0.06098 h 5.16e-4 c -0.0029,-0.0058 -0.005,-0.01161 -0.0072,-0.01757 z m 3.488159,0.07286 c 0.0049,0.05957 0.0014,0.09911 -0.0098,0.128674 0.103875,0.02347 0.208391,0.04406 0.311609,0.07028 0.224743,0.05606 0.447241,0.122103 0.666626,0.19637 a 7.3094125,8.9297256 28.1 0 0 -0.968416,-0.395324 z m -4.378027,0.193786 a 7.3094125,8.9297256 28.1 0 0 -0.525033,0.201022 c 0.01918,0.05439 0.01977,0.114546 0.02739,0.181384 -0.0053,0.08133 -0.01494,0.162315 -0.02325,0.243396 0.0056,0.0035 0.01098,0.0073 0.01654,0.01085 0.178894,-0.05482 0.361469,-0.09574 0.545186,-0.129708 -0.02534,-0.162428 -0.03736,-0.327088 -0.04082,-0.491443 6.7e-5,-0.0052 -6.4e-5,-0.01034 0,-0.0155 z m -0.689881,0.457853 c -0.0079,0.004 -0.01741,0.01074 -0.02739,0.01809 0.0038,-4.34e-4 0.0076,-0.0012 0.01137,-0.0016 0.0077,-7.9e-4 0.02289,-0.02004 0.01602,-0.01654 z m 5.067391,0.860413 c -0.0083,0.01192 -0.01771,0.02295 -0.02894,0.03256 0.01785,0.0082 0.03539,0.01707 0.05323,0.02532 -0.01022,-0.01901 -0.01826,-0.03847 -0.02429,-0.05788 z m -4.97334,0.04547 c -0.0059,0.07491 -0.01153,0.149785 -0.01757,0.224793 0.114414,0.05114 0.165236,0.219271 0.03049,0.425814 -0.01727,0.02647 -0.06917,0.108088 -0.0832,0.113688 -0.03882,0.01537 -0.07068,0.02244 -0.104386,0.03204 0.0044,0.01514 0.0085,0.03038 0.01292,0.04547 0.0065,0.02438 0.08294,0.308675 0.06718,0.325045 -0.0022,0.0022 -0.0036,0.004 -0.0057,0.0062 0.01219,0.03234 0.0242,0.06474 0.03617,0.09715 0.01633,0.0033 0.03274,0.0062 0.04909,0.0093 A 5.2823468,6.5123593 26.296173 0 1 15.974187,18.7779 c -0.01447,-0.0209 -0.02648,-0.04343 -0.03979,-0.06511 -0.04286,-0.09837 -0.05513,-0.205032 -0.06666,-0.310576 -0.0033,-0.03007 -0.004,-0.05774 -0.0031,-0.08423 -0.01896,1.85e-4 -0.03788,-4.53e-4 -0.05684,0 -0.319442,0.0078 -0.415332,-0.215716 -0.287838,-0.354501 -0.02726,-0.01906 -0.05453,-0.03809 -0.08165,-0.05736 -0.08926,-0.0045 -0.178588,-0.0058 -0.2682,-0.0031 -0.02778,8.29e-4 -0.05363,8.6e-5 -0.07803,-0.0026 z m -1.997811,0.133842 a 7.3094125,8.9297256 28.1 0 0 -2.629297,3.174483 7.3094125,8.9297256 28.1 0 0 -0.9797847,2.64325 c 0.031506,0.0019 0.063076,0.0036 0.094568,0.0057 0.2089169,0.01151 0.4184532,0.01104 0.6268347,0.03204 0.20927,0.02144 0.417091,0.05398 0.624252,0.09043 0.241232,0.0324 0.483594,0.05446 0.727087,0.05788 a 5.2823468,6.5123593 26.296173 0 1 0.696598,-1.863969 5.2823468,6.5123593 26.296173 0 1 1.998845,-2.43396 c -0.115317,-0.154701 -0.228511,-0.311209 -0.340031,-0.468705 -0.144806,-0.09238 -0.26962,-0.210733 -0.342098,-0.372587 -0.02624,-0.05861 -0.03785,-0.122628 -0.05684,-0.183968 -1.58e-4,-0.0098 -5.59e-4,-0.01966 -0.0016,-0.02946 -0.109615,-0.164935 -0.2199,-0.329356 -0.324528,-0.497644 -0.0273,-0.04391 -0.06112,-0.09824 -0.09405,-0.153479 z m 9.629904,10e-4 c 0.06466,0.118838 0.134407,0.254303 0.152445,0.371037 0.0075,0.04863 0.04032,0.111004 0.0078,0.147794 -4.91e-4,5.53e-4 -0.0011,0.0011 -0.0015,0.0016 0.111537,0.05881 0.22265,0.118218 0.33228,0.180351 0.06566,0.04091 0.03706,0.02245 0.0863,0.05426 0.01385,0.0089 0.02499,0.01863 0.03721,0.02791 a 7.3094125,8.9297256 28.1 0 0 -0.614432,-0.782898 z m -7.665682,0.425297 c 3e-6,0.0026 -10e-6,0.0052 0,0.0078 10e-4,-0.0011 0.0021,-0.002 0.0031,-0.0031 -10e-4,-0.0015 -0.0021,-0.0031 -0.0031,-0.0047 z m 7.221264,0.301273 c 0.01062,0.06515 0.0203,0.130555 0.02739,0.196888 0.0026,0.02453 0.02625,0.263292 0.01705,0.296622 -0.02304,0.08354 -0.07123,0.157729 -0.10697,0.236678 -0.05238,0.0061 -0.104721,0.01901 -0.157097,0.02584 -0.0114,0.0184 -0.02574,0.03778 -0.04393,0.05891 -0.09923,0.115302 -0.217993,0.0835 -0.31781,0.02119 -0.0061,0.02195 -0.0134,0.04384 -0.02377,0.06615 -0.04843,0.1025 -0.114826,0.189561 -0.222725,0.230477 4.9e-5,0.01278 -1.69e-4,0.02553 0,0.03824 -2.76e-4,0.125825 -0.0086,0.251161 -0.02067,0.376205 a 5.2823468,6.5123593 26.296173 0 1 0.936377,4.376477 h 0.58291 1.327051 0.221175 a 7.3094125,8.9297256 28.1 0 0 -1.00769,-5.615678 c -5.03e-4,0.162256 -0.191821,0.26894 -0.440283,0.108004 -0.03824,-0.02477 -0.01755,-0.01159 -0.06356,-0.04082 -0.23229,-0.131745 -0.470355,-0.252424 -0.707451,-0.375171 z m -2.425175,0.136426 a 5.2823468,6.5123593 26.296173 0 1 0.04186,0.01757 c -1e-6,-0.001 -1.7e-5,-0.0021 0,-0.0031 -0.01391,-0.0049 -0.02794,-0.0096 -0.04186,-0.01447 z m 1.618506,0.499194 c -0.0019,0.01911 -0.0033,0.03825 -0.0052,0.05736 0.0061,-0.0151 0.01194,-0.02951 0.01809,-0.04444 -0.0042,-0.0044 -0.0087,-0.0085 -0.01292,-0.01292 z m -0.646472,0.109555 c -0.02582,0.0054 -0.05167,0.01073 -0.07751,0.01602 a 5.2823468,6.5123593 26.296173 0 1 0.171049,0.185519 c -0.04315,-0.05661 -0.07291,-0.122755 -0.09353,-0.201538 z M 9.3952803,24.308847 a 7.3094125,8.9297256 28.1 0 0 3.3119427,8.22017 7.3094125,8.9297256 28.1 0 0 10.653613,-4.434355 7.3094125,8.9297256 28.1 0 0 1.056783,-2.947624 h -0.140043 -1.327051 -0.663008 a 5.2823468,6.5123593 26.296173 0 1 -0.743624,2.064991 5.2823468,6.5123593 26.296173 0 1 -7.674467,3.244763 5.2823468,6.5123593 26.296173 0 1 -2.392102,-5.95881 c -0.236943,-0.0069 -0.473023,-0.02897 -0.707967,-0.06046 -0.202471,-0.03489 -0.404815,-0.06815 -0.609265,-0.08888 -0.2011799,-0.01933 -0.403469,-0.0197 -0.6051315,-0.03049 -0.05323,-0.0035 -0.1064309,-0.0062 -0.1596802,-0.0093 z" />
      </g>
    </g>
  </g>
</svg>
